<svg width="auto" height="auto" viewBox="0 0 200 216" fill="none" xmlns="http://www.w3.org/2000/svg">
<g filter="url(#filter0_d_361_672)">
<path d="M188 32H148V24C148 17.6348 145.471 11.5303 140.971 7.02944C136.47 2.52856 130.365 0 124 0H76C69.6348 0 63.5303 2.52856 59.0294 7.02944C54.5286 11.5303 52 17.6348 52 24V32H12C9.87827 32 7.84344 32.8429 6.34315 34.3431C4.84286 35.8434 4 37.8783 4 40C4 42.1217 4.84286 44.1566 6.34315 45.6569C7.84344 47.1571 9.87827 48 12 48H20V192C20 196.243 21.6857 200.313 24.6863 203.314C27.6869 206.314 31.7565 208 36 208H164C168.243 208 172.313 206.314 175.314 203.314C178.314 200.313 180 196.243 180 192V48H188C190.122 48 192.157 47.1571 193.657 45.6569C195.157 44.1566 196 42.1217 196 40C196 37.8783 195.157 35.8434 193.657 34.3431C192.157 32.8429 190.122 32 188 32ZM84 152C84 154.122 83.1571 156.157 81.6569 157.657C80.1566 159.157 78.1217 160 76 160C73.8783 160 71.8434 159.157 70.3431 157.657C68.8429 156.157 68 154.122 68 152V88C68 85.8783 68.8429 83.8434 70.3431 82.3431C71.8434 80.8429 73.8783 80 76 80C78.1217 80 80.1566 80.8429 81.6569 82.3431C83.1571 83.8434 84 85.8783 84 88V152ZM132 152C132 154.122 131.157 156.157 129.657 157.657C128.157 159.157 126.122 160 124 160C121.878 160 119.843 159.157 118.343 157.657C116.843 156.157 116 154.122 116 152V88C116 85.8783 116.843 83.8434 118.343 82.3431C119.843 80.8429 121.878 80 124 80C126.122 80 128.157 80.8429 129.657 82.3431C131.157 83.8434 132 85.8783 132 88V152ZM132 32H68V24C68 21.8783 68.8429 19.8434 70.3431 18.3431C71.8434 16.8429 73.8783 16 76 16H124C126.122 16 128.157 16.8429 129.657 18.3431C131.157 19.8434 132 21.8783 132 24V32Z" fill="black"/>
<path d="M147.5 32V32.5H148H188C189.989 32.5 191.897 33.2902 193.303 34.6967C194.71 36.1032 195.5 38.0109 195.5 40C195.5 41.9891 194.71 43.8968 193.303 45.3033C191.897 46.7098 189.989 47.5 188 47.5H180H179.5V48V192C179.5 196.111 177.867 200.053 174.96 202.96C172.053 205.867 168.111 207.5 164 207.5H36C31.8891 207.5 27.9467 205.867 25.0398 202.96C22.133 200.053 20.5 196.111 20.5 192V48V47.5H20H12C10.0109 47.5 8.10322 46.7098 6.6967 45.3033C5.29018 43.8968 4.5 41.9891 4.5 40C4.5 38.0109 5.29018 36.1032 6.6967 34.6967C8.10322 33.2902 10.0109 32.5 12 32.5H52H52.5V32V24C52.5 17.7674 54.9759 11.7901 59.383 7.38299C63.7901 2.97589 69.7674 0.5 76 0.5H124C130.233 0.5 136.21 2.97589 140.617 7.38299C145.024 11.7901 147.5 17.7674 147.5 24V32ZM132 32.5H132.5V32V24C132.5 21.7457 131.604 19.5837 130.01 17.9896C128.416 16.3955 126.254 15.5 124 15.5H76C73.7457 15.5 71.5837 16.3955 69.9896 17.9896C68.3955 19.5837 67.5 21.7457 67.5 24V32V32.5H68H132ZM82.0104 158.01C83.6045 156.416 84.5 154.254 84.5 152V88C84.5 85.7457 83.6045 83.5837 82.0104 81.9896C80.4163 80.3955 78.2543 79.5 76 79.5C73.7457 79.5 71.5837 80.3955 69.9896 81.9896C68.3955 83.5837 67.5 85.7457 67.5 88V152C67.5 154.254 68.3955 156.416 69.9896 158.01C71.5837 159.604 73.7457 160.5 76 160.5C78.2543 160.5 80.4163 159.604 82.0104 158.01ZM130.01 158.01C131.604 156.416 132.5 154.254 132.5 152V88C132.5 85.7457 131.604 83.5837 130.01 81.9896C128.416 80.3955 126.254 79.5 124 79.5C121.746 79.5 119.584 80.3955 117.99 81.9896C116.396 83.5837 115.5 85.7457 115.5 88V152C115.5 154.254 116.396 156.416 117.99 158.01C119.584 159.604 121.746 160.5 124 160.5C126.254 160.5 128.416 159.604 130.01 158.01Z" stroke="black"/>
</g>
<defs>
<filter id="filter0_d_361_672" x="0" y="0" width="200" height="216" filterUnits="userSpaceOnUse" color-interpolation-filters="sRGB">
<feFlood flood-opacity="0" result="BackgroundImageFix"/>
<feColorMatrix in="SourceAlpha" type="matrix" values="0 0 0 0 0 0 0 0 0 0 0 0 0 0 0 0 0 0 127 0" result="hardAlpha"/>
<feOffset dy="4"/>
<feGaussianBlur stdDeviation="2"/>
<feComposite in2="hardAlpha" operator="out"/>
<feColorMatrix type="matrix" values="0 0 0 0 0 0 0 0 0 0 0 0 0 0 0 0 0 0 0.25 0"/>
<feBlend mode="normal" in2="BackgroundImageFix" result="effect1_dropShadow_361_672"/>
<feBlend mode="normal" in="SourceGraphic" in2="effect1_dropShadow_361_672" result="shape"/>
</filter>
</defs>
</svg>

