<svg width="208" height="209" viewBox="0 0 208 209" fill="none" xmlns="http://www.w3.org/2000/svg">
<path d="M202.14 50.5507L157.46 5.86073C155.603 4.0027 153.398 2.52878 150.971 1.52318C148.544 0.517583 145.942 0 143.315 0C140.688 0 138.087 0.517583 135.66 1.52318C133.233 2.52878 131.027 4.0027 129.17 5.86073L5.86009 129.181C3.9961 131.033 2.5183 133.236 1.51238 135.663C0.506449 138.09 -0.00758307 140.693 8.45319e-05 143.321V188.011C8.45319e-05 193.315 2.10722 198.402 5.85795 202.153C9.60868 205.904 14.6958 208.011 20.0001 208.011H64.6901C67.3174 208.018 69.9201 207.504 72.3473 206.498C74.7745 205.492 76.978 204.014 78.8301 202.151L202.14 78.8307C205.89 75.0802 207.996 69.994 207.996 64.6907C207.996 59.3874 205.89 54.3013 202.14 50.5507ZM65.0001 160.011L136 89.0107L147 100.011L76.0001 171.011L65.0001 160.011ZM48.0001 143.011L37.0001 132.011L108 61.0107L119 72.0107L48.0001 143.011ZM24.0001 153.011L39.5101 168.521L55.0001 184.011H24.0001V153.011ZM164 83.0107L125 44.0107L143.34 25.6707L182.34 64.6707L164 83.0107Z" fill="black"/>
</svg>
